<svg xmlns="http://www.w3.org/2000/svg" height="40" viewBox="0 -960 960 960" width="40"><path fill="#707282" d="M480-350.256q53.795 0 91.769-37.975 37.975-37.974 37.975-91.769 0-53.795-37.975-91.769-37.974-37.975-91.769-37.975-53.795 0-91.769 37.975-37.975 37.974-37.975 91.769 0 53.795 37.975 91.769 37.974 37.975 91.769 37.975Zm0 50.255q-74.922 0-127.461-52.538Q300.001-405.078 300.001-480t52.538-127.461Q405.078-659.999 480-659.999t127.461 52.538Q659.999-554.922 659.999-480t-52.538 127.461Q554.922-300.001 480-300.001ZM200-454.873H50v-50.254h150v50.254Zm709.999 0H760v-50.254h149.999v50.254ZM454.873-760v-149.999h50.254V-760h-50.254Zm0 710v-150h50.254v150h-50.254ZM265.898-660.719l-93.282-90.462 35.615-37.204 90.23 92.692-32.563 34.974ZM752.18-172.027l-91.256-92.897 33.845-34.768 92.615 90.872-35.204 36.793Zm-91.872-522.742 90.872-92.615 37.204 35.204-92.282 91.051-35.794-33.64ZM172.027-208.231l92.486-91.256 34.41 33.999-90.487 93.256-36.409-35.999ZM480-480Z"/></svg>